<?xml version="1.0" standalone="no"?>
<!DOCTYPE svg PUBLIC "-//W3C//DTD SVG 20010904//EN" "http://www.w3.org/TR/2001/REC-SVG-20010904/DTD/svg10.dtd">
<svg version="1.0" xmlns="http://www.w3.org/2000/svg"
	width="128.000000pt" height="128.000000pt" viewBox="0 0 128.000000 128.000000"
	preserveAspectRatio="xMidYMid meet">

	<g transform="translate(0.000000,128.000000) scale(0.100000,-0.100000)"
		fill="#000000" stroke="none">
		<path
			d="M109 1101 c-16 -16 -29 -39 -29 -51 0 -11 -18 -38 -40 -59 -27 -25
-40 -47 -40 -64 0 -84 90 -136 152 -88 l25 20 52 -35 52 -35 -8 -47 c-11 -64
-6 -141 12 -193 9 -23 12 -46 8 -49 -5 -4 -32 -23 -62 -43 l-54 -36 -25 20
c-62 48 -152 -3 -152 -87 0 -19 13 -39 40 -65 22 -21 40 -48 40 -59 0 -12 13
-35 29 -51 39 -38 87 -39 131 -3 28 24 31 32 28 73 l-3 46 64 44 c57 39 66 42
87 30 20 -10 24 -20 24 -60 0 -98 21 -109 200 -109 l132 0 29 29 c24 24 29 38
29 78 1 38 5 51 24 65 22 16 25 15 92 -30 l69 -47 -3 -46 c-3 -41 0 -49 28
-73 44 -36 92 -35 131 3 16 16 29 39 29 51 0 11 18 38 40 59 43 41 54 87 25
111 -17 14 -22 5 -27 -45 -2 -23 -11 -34 -40 -48 -34 -17 -38 -23 -38 -56 0
-45 -14 -61 -56 -61 -50 0 -66 33 -49 100 5 22 -2 30 -70 74 -41 27 -75 51
-75 55 1 9 37 51 45 51 3 0 33 -18 65 -40 78 -53 87 -56 110 -35 11 10 34 20
52 24 41 9 44 35 4 39 -18 2 -40 -4 -56 -16 l-27 -21 -67 45 c-52 35 -66 49
-61 62 21 52 27 96 22 172 l-5 85 56 37 56 37 24 -20 c62 -48 152 4 152 87 0
19 -13 39 -40 65 -22 21 -40 48 -40 59 0 12 -13 35 -29 51 -39 38 -87 39 -131
3 -28 -24 -31 -32 -28 -73 3 -45 2 -47 -44 -78 -26 -18 -50 -33 -53 -33 -3 0
-23 13 -43 30 -67 53 -147 83 -226 84 -78 1 -165 -19 -173 -41 -9 -24 5 -26
71 -8 126 34 241 1 330 -96 63 -68 87 -129 87 -221 0 -110 -65 -235 -145 -277
-23 -13 -26 -20 -26 -71 0 -55 -11 -80 -37 -80 -8 0 -13 13 -13 35 0 28 -4 35
-20 35 -16 0 -20 -7 -20 -35 0 -31 -3 -35 -25 -35 -22 0 -25 4 -25 33 0 19 -3
37 -7 40 -12 13 -33 -15 -33 -44 0 -22 -5 -29 -20 -29 -15 0 -20 7 -20 29 0
29 -21 57 -33 44 -4 -3 -7 -21 -7 -40 0 -20 -5 -33 -13 -33 -25 0 -37 24 -37
73 0 47 -2 51 -69 115 -62 61 -71 74 -91 141 -18 57 -21 85 -16 129 9 75 45
151 95 201 23 23 41 45 41 50 0 22 -20 20 -49 -4 l-30 -26 -48 33 c-47 32 -48
34 -45 79 3 41 0 49 -28 73 -44 36 -92 35 -131 -3z m111 -26 c13 -16 15 -46 5
-85 -5 -22 1 -29 49 -60 31 -19 56 -40 56 -46 0 -7 -8 -22 -18 -34 l-19 -23
-54 37 c-29 20 -58 36 -62 36 -5 0 -20 -9 -34 -20 -31 -24 -60 -26 -85 -3 -36
33 -14 95 37 105 15 2 21 12 23 43 2 22 8 45 14 52 14 18 73 16 88 -2z m928 2
c6 -7 12 -30 14 -52 2 -31 8 -41 23 -43 51 -10 72 -67 38 -104 -21 -24 -54
-23 -86 2 -32 25 -35 25 -77 -3 -95 -64 -87 -62 -104 -28 -9 16 -16 32 -16 34
0 3 27 22 60 43 54 35 60 42 55 64 -10 39 -8 69 5 85 15 18 74 20 88 2z m-788
-665 c0 -4 -32 -27 -71 -52 -62 -40 -69 -48 -64 -70 17 -67 1 -100 -50 -100
-40 0 -53 14 -57 65 -2 31 -8 41 -23 43 -51 10 -72 67 -38 104 21 24 54 23 86
-2 14 -11 29 -20 34 -20 4 0 37 20 73 44 l65 45 23 -25 c12 -14 22 -28 22 -32z" />
		<path
			d="M415 677 c-29 -29 -35 -42 -35 -77 0 -34 6 -48 34 -76 46 -46 101
-48 148 -5 29 26 33 35 33 80 0 66 -31 101 -99 108 -42 5 -48 3 -81 -30z m125
-27 c42 -42 12 -120 -48 -120 -44 0 -72 26 -72 66 0 43 29 74 70 74 17 0 39
-9 50 -20z" />
		<path
			d="M722 697 c-70 -40 -76 -147 -9 -187 67 -41 144 -16 167 55 31 94 -72
179 -158 132z m107 -53 c12 -15 21 -34 21 -44 0 -34 -39 -70 -75 -70 -36 0
-75 36 -75 70 0 34 39 70 75 70 24 0 39 -7 54 -26z" />
		<path d="M607 482 c-27 -29 -20 -39 28 -40 49 0 58 13 27 41 -24 22 -35 21
-55 -1z" />
	</g>
</svg>