<?xml version="1.0" standalone="no"?>
<!DOCTYPE svg PUBLIC "-//W3C//DTD SVG 20010904//EN"
 "http://www.w3.org/TR/2001/REC-SVG-20010904/DTD/svg10.dtd">
<svg version="1.0" xmlns="http://www.w3.org/2000/svg"
 width="128.000000pt" height="128.000000pt" viewBox="0 0 128.000000 128.000000"
 preserveAspectRatio="xMidYMid meet">

<g transform="translate(0.000000,128.000000) scale(0.100000,-0.100000)"
fill="#000000" stroke="none">
<path d="M590 1265 c-14 -8 -47 -14 -73 -15 -55 0 -81 -11 -119 -52 -14 -15
-35 -28 -46 -28 -30 0 -80 -46 -87 -80 -4 -18 -18 -37 -36 -47 -36 -22 -62
-73 -53 -108 5 -19 0 -35 -14 -55 -30 -41 -35 -72 -18 -113 10 -25 13 -54 9
-90 -5 -49 -3 -56 26 -89 17 -20 31 -43 31 -52 0 -40 30 -87 64 -101 19 -8 37
-19 40 -24 3 -5 -17 -64 -45 -131 -73 -176 -62 -202 65 -164 35 11 61 14 63 9
12 -33 61 -110 76 -119 31 -19 50 7 107 142 30 73 57 132 60 132 3 0 30 -59
60 -132 57 -135 76 -161 107 -142 15 9 64 86 76 119 2 5 28 2 63 -9 127 -38
138 -12 65 164 -28 67 -48 126 -45 131 3 5 21 16 40 24 34 14 64 61 64 101 0
9 14 32 31 52 29 33 31 40 26 89 -4 36 -1 65 9 90 17 41 12 72 -18 113 -14 20
-19 36 -14 55 9 35 -17 86 -53 108 -18 10 -32 29 -36 47 -7 34 -57 80 -87 80
-11 0 -32 13 -46 28 -38 41 -64 52 -119 52 -26 1 -59 7 -73 15 -32 18 -68 18
-100 0z m94 -40 c12 -9 42 -15 75 -15 48 0 59 -4 86 -30 17 -16 48 -35 70 -43
31 -10 44 -23 60 -55 11 -23 37 -57 58 -76 32 -29 37 -40 37 -76 0 -26 8 -56
22 -78 20 -33 21 -36 4 -81 -12 -35 -14 -54 -7 -79 11 -37 0 -79 -23 -88 -16
-6 -33 -45 -38 -84 -2 -15 -16 -33 -38 -47 -40 -25 -50 -35 -86 -80 -21 -27
-33 -33 -64 -33 -24 0 -48 -8 -66 -23 -25 -19 -41 -22 -134 -23 -96 -1 -107 1
-133 23 -19 15 -41 23 -67 23 -31 0 -43 6 -64 33 -36 45 -46 55 -86 80 -26 17
-36 32 -41 60 -3 21 -17 50 -31 65 -33 36 -39 54 -28 92 6 22 4 45 -7 80 -15
46 -15 50 6 83 13 21 21 51 21 77 0 36 5 47 37 76 21 19 47 53 58 76 16 32 29
45 60 55 22 8 53 27 70 43 27 26 38 30 86 30 33 0 63 6 75 15 10 8 30 14 44
14 14 0 34 -6 44 -14z m-240 -905 c17 0 40 -9 53 -22 12 -11 38 -24 56 -27
l34 -6 -45 -113 c-25 -61 -49 -112 -53 -112 -3 0 -21 27 -39 61 -17 33 -38 63
-46 66 -8 3 -43 -4 -79 -15 -36 -11 -67 -17 -69 -13 -2 3 17 54 41 112 l44
106 37 -18 c20 -11 50 -19 66 -19z m540 -72 c24 -59 42 -109 40 -111 -3 -2
-34 4 -69 15 -36 11 -71 18 -79 15 -8 -3 -29 -33 -46 -66 -18 -34 -36 -61 -39
-61 -4 0 -28 51 -53 113 l-45 112 34 6 c18 3 44 16 56 27 13 12 36 22 53 22
16 0 45 8 64 18 19 10 36 18 37 17 1 0 22 -49 47 -107z"/>
<path d="M556 1140 c-63 -16 -155 -71 -193 -114 -43 -50 -83 -133 -90 -188 -5
-35 -3 -40 12 -37 12 3 22 21 32 59 25 98 88 173 183 219 46 22 69 26 140 26
71 0 94 -4 140 -26 95 -46 158 -121 183 -219 10 -38 20 -56 32 -59 43 -8 -12
149 -79 226 -54 62 -162 113 -251 118 -39 2 -87 0 -109 -5z"/>
<path d="M613 1028 c-6 -7 -21 -43 -34 -80 l-24 -68 -77 0 c-74 0 -108 -13
-108 -40 0 -12 34 -44 88 -83 23 -17 42 -35 42 -41 0 -6 -9 -40 -20 -76 -35
-114 -9 -132 93 -64 l69 46 67 -47 c99 -68 126 -49 91 65 -11 36 -20 70 -20
76 0 6 19 24 43 41 53 39 87 71 87 83 0 27 -34 40 -108 40 l-77 0 -24 68 c-28
78 -37 92 -61 92 -10 0 -22 -6 -27 -12z m56 -103 c13 -36 32 -70 42 -75 10 -6
48 -10 86 -10 l68 -1 -35 -27 c-19 -15 -48 -39 -64 -53 l-30 -26 21 -77 c12
-42 19 -76 17 -76 -3 0 -32 18 -64 40 -32 22 -64 40 -70 40 -6 0 -38 -18 -70
-40 -32 -22 -61 -40 -64 -40 -2 0 5 34 17 76 l21 77 -30 26 c-16 14 -45 38
-64 53 l-35 27 68 1 c38 0 76 4 86 10 10 5 29 39 42 75 12 36 26 65 29 65 3 0
17 -29 29 -65z"/>
<path d="M273 734 c-9 -24 23 -116 60 -171 63 -94 193 -163 307 -163 108 0
237 65 300 151 35 48 72 144 68 173 -6 41 -30 22 -45 -34 -15 -61 -68 -145
-111 -177 -76 -56 -113 -68 -212 -68 -81 0 -102 4 -140 24 -102 54 -154 118
-185 224 -16 57 -30 71 -42 41z"/>
</g>
</svg>
